<?xml version="1.0" standalone="no"?><!DOCTYPE svg PUBLIC "-//W3C//DTD SVG 1.1//EN" "http://www.w3.org/Graphics/SVG/1.1/DTD/svg11.dtd"><svg t="1698803068051" class="icon" viewBox="0 0 1024 1024" version="1.1" xmlns="http://www.w3.org/2000/svg" p-id="2622" xmlns:xlink="http://www.w3.org/1999/xlink" width="200" height="200"><path d="M163.977871 616.461241v282.123842c0 30.509098 35.389189 59.107112 83.644071 62.553889l9.828435 0.341265h498.417649c49.892955 0 88.387656-26.686929 92.994735-56.820636l0.443644-6.074518v-282.123842h62.315004v282.123842c0 68.389522-65.522895 120.705459-145.276545 124.903019l-10.476838 0.307139H257.41625c-80.879824 0-149.81537-49.44931-155.377991-116.371392l-0.375392-8.838766v-282.123842h62.280878zM760.91875 0a186.910884 186.910884 0 0 1 183.156968 149.542358l24.093315 118.077718a187.764047 187.764047 0 0 1 25.048857 136.847297 60.608678 60.608678 0 0 1-4.709458 18.496568 187.013264 187.013264 0 0 1-334.303273 47.538225 186.296607 186.296607 0 0 1-155.68513 83.678198 186.740252 186.740252 0 0 1-155.821635-83.678198 186.296607 186.296607 0 0 1-155.68513 83.678198A187.013264 187.013264 0 0 1 10.340332 428.390055a61.427714 61.427714 0 0 1-7.746717-29.963074A199.503566 199.503566 0 0 1 0.10238 367.269479c0-35.696327 9.999067-69.072052 27.369459-97.43118l24.605212-120.295941A186.910884 186.910884 0 0 1 235.23402 0h525.68473z m0 62.315004H235.23402a124.630007 124.630007 0 0 0-119.613411 89.650336l-2.491235 10.06732-26.823435 131.011664-5.699127 9.316537a123.708592 123.708592 0 0 0-18.189429 64.908618l0.409518 10.579218 1.330934 10.920482 0.68253 9.555423 4.368193 9.691928a124.664134 124.664134 0 0 0 117.804706 83.84883c38.767713 0 74.395788-17.779911 97.670066-47.367593l6.040392-8.360994 51.872292-78.456842 52.008798 78.354462a124.425248 124.425248 0 0 0 103.915217 55.830967c38.767713 0 74.395788-17.779911 97.670066-47.367593l6.040392-8.360994 51.872292-78.456842 52.008799 78.354462a124.766513 124.766513 0 0 0 219.535826-22.148104l5.562621-15.356928 0.955542-6.415784c1.092048-5.391988 1.808705-10.886356 2.184096-16.448977l0.273012-8.395121a123.879224 123.879224 0 0 0-13.377591-56.308738l-5.733253-10.06732-6.074518-9.657801-26.413918-129.237086a124.595881 124.595881 0 0 0-111.730187-99.274012l-10.374458-0.409518z" fill="#3586FF" p-id="2623"></path></svg>